<mxfile host="app.diagrams.net" modified="2021-02-18T01:39:51.960Z" agent="5.0 (Windows NT 10.0; Win64; x64) AppleWebKit/537.36 (KHTML, like Gecko) Chrome/88.0.4324.182 Safari/537.36" etag="I8oLd89QHMr1FUvsoGRs" version="14.4.2" type="github">
  <diagram id="blwEhQfbdMZ3_yyyGEJF" name="Page-1">
    <mxGraphModel dx="1185" dy="635" grid="1" gridSize="10" guides="1" tooltips="1" connect="1" arrows="1" fold="1" page="1" pageScale="1" pageWidth="850" pageHeight="1100" math="0" shadow="0">
      <root>
        <mxCell id="0" />
        <mxCell id="1" parent="0" />
        <mxCell id="CMA22hgyem0JBNqSxRW_-8" style="edgeStyle=orthogonalEdgeStyle;rounded=0;orthogonalLoop=1;jettySize=auto;html=1;exitX=0.5;exitY=1;exitDx=0;exitDy=0;" edge="1" parent="1" source="CMA22hgyem0JBNqSxRW_-2" target="CMA22hgyem0JBNqSxRW_-6">
          <mxGeometry relative="1" as="geometry" />
        </mxCell>
        <mxCell id="CMA22hgyem0JBNqSxRW_-12" style="edgeStyle=orthogonalEdgeStyle;rounded=0;orthogonalLoop=1;jettySize=auto;html=1;exitX=1;exitY=0.5;exitDx=0;exitDy=0;fontSize=13;" edge="1" parent="1" source="CMA22hgyem0JBNqSxRW_-2" target="CMA22hgyem0JBNqSxRW_-11">
          <mxGeometry relative="1" as="geometry" />
        </mxCell>
        <mxCell id="CMA22hgyem0JBNqSxRW_-2" value="&lt;font style=&quot;font-size: 13px&quot;&gt;&lt;b&gt;LOGIN&lt;/b&gt;&lt;/font&gt;" style="rounded=0;whiteSpace=wrap;html=1;fillColor=#dae8fc;strokeColor=#6c8ebf;" vertex="1" parent="1">
          <mxGeometry x="160" y="80" width="120" height="60" as="geometry" />
        </mxCell>
        <mxCell id="CMA22hgyem0JBNqSxRW_-5" style="edgeStyle=orthogonalEdgeStyle;rounded=0;orthogonalLoop=1;jettySize=auto;html=1;exitX=0.5;exitY=0;exitDx=0;exitDy=0;entryX=0;entryY=0.5;entryDx=0;entryDy=0;" edge="1" parent="1" source="CMA22hgyem0JBNqSxRW_-4" target="CMA22hgyem0JBNqSxRW_-2">
          <mxGeometry relative="1" as="geometry" />
        </mxCell>
        <mxCell id="CMA22hgyem0JBNqSxRW_-4" value="User" style="ellipse;whiteSpace=wrap;html=1;aspect=fixed;direction=south;" vertex="1" parent="1">
          <mxGeometry x="10" y="10" width="80" height="80" as="geometry" />
        </mxCell>
        <mxCell id="CMA22hgyem0JBNqSxRW_-9" style="edgeStyle=orthogonalEdgeStyle;rounded=0;orthogonalLoop=1;jettySize=auto;html=1;exitX=0.5;exitY=1;exitDx=0;exitDy=0;entryX=0.5;entryY=0;entryDx=0;entryDy=0;" edge="1" parent="1" source="CMA22hgyem0JBNqSxRW_-6" target="CMA22hgyem0JBNqSxRW_-7">
          <mxGeometry relative="1" as="geometry" />
        </mxCell>
        <mxCell id="CMA22hgyem0JBNqSxRW_-6" value="&lt;font size=&quot;1&quot;&gt;&lt;b style=&quot;font-size: 13px&quot;&gt;SEARCH&lt;/b&gt;&lt;/font&gt;" style="rounded=0;whiteSpace=wrap;html=1;fillColor=#dae8fc;strokeColor=#6c8ebf;" vertex="1" parent="1">
          <mxGeometry x="160" y="190" width="120" height="60" as="geometry" />
        </mxCell>
        <mxCell id="CMA22hgyem0JBNqSxRW_-7" value="&lt;b&gt;&lt;font style=&quot;font-size: 13px&quot;&gt;DONATE&lt;/font&gt;&lt;/b&gt;" style="rounded=0;whiteSpace=wrap;html=1;fillColor=#dae8fc;strokeColor=#6c8ebf;" vertex="1" parent="1">
          <mxGeometry x="160" y="290" width="120" height="60" as="geometry" />
        </mxCell>
        <mxCell id="CMA22hgyem0JBNqSxRW_-14" style="edgeStyle=orthogonalEdgeStyle;rounded=0;orthogonalLoop=1;jettySize=auto;html=1;fontSize=13;" edge="1" parent="1" source="CMA22hgyem0JBNqSxRW_-11" target="CMA22hgyem0JBNqSxRW_-13">
          <mxGeometry relative="1" as="geometry" />
        </mxCell>
        <mxCell id="CMA22hgyem0JBNqSxRW_-11" value="ACCESS PROFILE" style="rounded=0;whiteSpace=wrap;html=1;fillColor=#dae8fc;strokeColor=#6c8ebf;fontSize=13;fontStyle=1" vertex="1" parent="1">
          <mxGeometry x="340" y="80" width="140" height="60" as="geometry" />
        </mxCell>
        <mxCell id="CMA22hgyem0JBNqSxRW_-19" style="edgeStyle=orthogonalEdgeStyle;rounded=0;orthogonalLoop=1;jettySize=auto;html=1;exitX=0.5;exitY=1;exitDx=0;exitDy=0;entryX=0.5;entryY=0;entryDx=0;entryDy=0;fontSize=13;" edge="1" parent="1" source="CMA22hgyem0JBNqSxRW_-13" target="CMA22hgyem0JBNqSxRW_-15">
          <mxGeometry relative="1" as="geometry" />
        </mxCell>
        <mxCell id="CMA22hgyem0JBNqSxRW_-13" value="&lt;b&gt;EDIT PROFILE&lt;/b&gt;" style="rounded=0;whiteSpace=wrap;html=1;fontSize=13;fillColor=#dae8fc;strokeColor=#6c8ebf;" vertex="1" parent="1">
          <mxGeometry x="540" y="80" width="120" height="60" as="geometry" />
        </mxCell>
        <mxCell id="CMA22hgyem0JBNqSxRW_-15" value="SAVE TO DB" style="rounded=0;whiteSpace=wrap;html=1;fontSize=13;fillColor=#dae8fc;strokeColor=#6c8ebf;fontStyle=1" vertex="1" parent="1">
          <mxGeometry x="540" y="190" width="120" height="60" as="geometry" />
        </mxCell>
      </root>
    </mxGraphModel>
  </diagram>
</mxfile>
